<?xml version="1.0" encoding="UTF-8" standalone="no"?>
<svg
   xmlns="http://www.w3.org/2000/svg"
   height="64"
   viewBox="0 0 16.933332 16.933332"
   width="64"
   version="1.1">
  <g
     transform="translate(0.00338394,-279.92129)"
     fill="#ffff00"
     stroke="#123"
     style="fill-opacity:1;stroke-opacity:1">
    <path
       d="m 7.3474381,296.3294 c -0.06076,-0.1584 0.17898,-0.53968 0.418874,-0.6663 0.08182,-0.0432 0.16014,-0.09 0.17404,-0.1038 0.02064,-0.0206 -0.28957,-4.09402 -0.357226,-4.69082 -0.0184,-0.1626 -0.02776,-0.1766 -0.17442,-0.26174 -0.442296,-0.25684 -0.836164,-0.68212 -1.078174,-1.1642 l -0.12134,-0.2417 0.012,-2.91676 c 0.011,-2.6689 0.017,-2.93354 0.0704,-3.11402 0.243896,-0.82432 0.83621,-1.41098 1.640102,-1.62442 0.278828,-0.074 0.80275,-0.075 1.091406,-0.002 0.613836,0.155 1.1828519,0.60458 1.4507539,1.14628 0.265612,0.53706 0.248054,0.29564 0.26024,3.57838 l 0.0108,2.93388 -0.13138,0.2613 c -0.242794,0.48288 -0.6254219,0.89634 -1.0530739,1.1379 -0.0955,0.054 -0.17364,0.1152 -0.17364,0.1362 -4e-6,0.021 -0.05194,0.6707 -0.11542,1.44378 -0.06348,0.77308 -0.1452,1.77766 -0.18162,2.23242 -0.03642,0.45476 -0.07478,0.90448 -0.08526,0.99938 l -0.019,0.1726 0.1632,0.1004 c 0.17694,0.1088 0.307428,0.27594 0.369922,0.47362 0.07334,0.23194 0.1221,0.22188 -1.07433,0.22188 -0.949588,0 -1.07931,-0.006 -1.096936,-0.052 z M 10.27752,284.78498 c 0.06232,-0.0792 0.0685,-0.131 0.06798,-0.5705 -3.54e-4,-0.29794 -0.0194,-0.57182 -0.04942,-0.71394 -0.13936,-0.6579 -0.5889879,-1.17438 -1.2156759,-1.39642 -0.321982,-0.114 -0.832556,-0.1222 -1.132122,-0.018 -0.591874,0.20608 -0.988662,0.60746 -1.216546,1.23064 -0.0557,0.1522 -0.06928,0.28842 -0.08182,0.81936 -0.0082,0.3502 -0.0064,0.65902 0.004,0.68626 0.0166,0.0432 0.247178,0.0496 1.787046,0.0496 H 10.209 Z"
       style="fill-opacity:1;stroke-width:0.564583;stroke-opacity:1" />
    <path
       d="m 1.7657484,281.9306 c 2.0213886,1.661 4.094357,3.35747 5.8228883,4.75854 -0.194802,0.33922 -0.1763595,0.7604 0.047348,1.0813 l -0.00394,-0.006 -5.3421652,5.2922 0.9135094,0.83122 4.766539,-5.81598 -0.00758,-0.006 c 0.3371307,0.19282 0.7549323,0.17541 1.0748476,-0.0448 l 5.2922075,5.34216 0.831199,-0.9135 -5.8159673,-4.76654 c 0.1880002,-0.33627 0.1684742,-0.75018 -0.050348,-1.06726 l 5.3421643,-5.29222 -0.913491,-0.8308 -4.7665393,5.81598 c -0.3377801,-0.18913 -0.7539179,-0.16871 -1.0715504,0.0526 l 0.00428,-0.002 -5.292208,-5.34216 z"
       style="fill-opacity:1;stroke-width:0.529167;stroke-opacity:1" />
  </g>
</svg>
