<?xml version="1.0" encoding="UTF-8" standalone="no"?>
<svg xmlns="http://www.w3.org/2000/svg" height="36" viewBox="0 0 9.5249993 9.5249993" width="36" version="1.1">
    <path
        fill='#ffff00' stroke='#124'
        d="m28.815569 287.02862c-.297657-.11759-.788238-.32154-1.471745-.61185-.242535-.12127-.611849-.28479-1.107943-.49058-.507118-.16537-.878269-.24805-1.113454-.24805-.110243 0-.191088.0496-.242535.14883-.01837.0331-.06063.41892-.12678 1.15755-.06247.73495-.09371 1.1649-.09371 1.28984 0 .0551.192925.21866.578776.49059.404224.27928.622873.45383.655946.52365.05879.12127.08819.32154.08819.60082l-1.46072-.39687h-.319705l-1.444184.39687c.0047-.28243.0072-.4692.08268-.61737.826823-.64308 1.240235-.96646 1.240235-.97014.04754-.11697-.02572-.27191-.07717-.97013.0037-.30501-.02389-.75333-.08268-1.34497-.0147-.0772-.0588-.14699-.132291-.20946-.0735-.0661-.148828-.0992-.225999-.0992-.0294 0-.249886.0514-.661458.15434-.429948.10657-.942578.28847-1.53789.5457-.496094.21681-.994025.43363-1.493794.65044v-.32522c0-.18741.02756-.32154.08268-.40239.05512-.0808.222322-.21313.501605-.39687.268259-.17271.41525-.29031.440973-.35278.01837-.0441.02756-.1782.02756-.40239 0-.29765.06798-.44648.20395-.44648.07717 0 .135966.0717.176389.21497.02205.10657.0441.21131.06615.3142l.804774-.60634v-.678c0-.13229.06982-.19843.209462-.19843.113918 0 .198438.17639.253559.52916.812123-.56959 1.218185-.90583 1.218185-1.00872 0-.0221-.0018-.0515-.0055-.0882-.0037-.0404-.0055-.0716-.0055-.0937 0-.17271.04042-.53284.121268-1.08038.0294-.22049.0588-.44097.08819-.66146.06982-.32338.174552-.48507.314193-.48507.180063 0 .297656.25907.352777.77721.07717.74965.115756 1.14837.115756 1.19614 0 .0367-.0055.0937-.01654.17088-.01103.0735-.01654.12861-.01654.16536 0 .13597.174551.33624.523654.60083.242535.16903.483232.33807.722092.50711.02572-.10657.05144-.21313.07717-.3197.04042-.13964.104729-.20946.192926-.20946.132291 0 .198437.0551.198437.16536v.71107l.832335.60634c.0147-.10657.03124-.21314.04961-.31971.02572-.13964.08819-.20946.187414-.20946.110243 0 .174551.12494.192925.37483.01837.3197.03123.4869.03858.5016.0147.0367.192926.1727.534679.4079.308681.22049.463021.40423.463021.55122z"
        stroke-linecap="square" stroke-miterlimit="4.1" stroke-width=".264583"
        transform="translate(-19.608888 -280.53797)" style="fill-opacity: 1; stroke-opacity: 1" />
</svg>