<?xml version="1.0" encoding="UTF-8" standalone="no"?>
<svg
   xmlns:dc="http://purl.org/dc/elements/1.1/"
   xmlns:cc="http://creativecommons.org/ns#"
   xmlns:rdf="http://www.w3.org/1999/02/22-rdf-syntax-ns#"
   xmlns:svg="http://www.w3.org/2000/svg"
   xmlns="http://www.w3.org/2000/svg"
   xmlns:sodipodi="http://sodipodi.sourceforge.net/DTD/sodipodi-0.dtd"
   xmlns:inkscape="http://www.inkscape.org/namespaces/inkscape"
   height="64"
   viewBox="0 0 16.933332 16.933332"
   width="64"
   version="1.1"
   >  
  <g     
     transform="translate(0 -280.06667)"
     id="g6"
     style="fill:#ffff00;fill-opacity:1;stroke:#000000;stroke-opacity:1">
    <path
       d="m7.3474381 296.3294c-.06076-.1584.17898-.53968.418874-.6663.08182-.0432.16014-.09.17404-.1038.02064-.0206-.28957-4.09402-.357226-4.69082-.0184-.1626-.02776-.1766-.17442-.26174-.442296-.25684-.836164-.68212-1.078174-1.1642l-.12134-.2417.012-2.91676c.011-2.6689.017-2.93354.0704-3.11402.243896-.82432.83621-1.41098 1.640102-1.62442.278828-.074.80275-.075 1.091406-.002.613836.155 1.1828519.60458 1.4507539 1.14628.265612.53706.248054.29564.26024 3.57838l.0108 2.93388-.13138.2613c-.242794.48288-.6254219.89634-1.0530739 1.1379-.0955.054-.17364.1152-.17364.1362-.000004.021-.05194.6707-.11542 1.44378s-.1452 1.77766-.18162 2.23242-.07478.90448-.08526.99938l-.019.1726.1632.1004c.17694.1088.307428.27594.369922.47362.07334.23194.1221.22188-1.07433.22188-.949588 0-1.07931-.006-1.096936-.052zm2.9300819-11.54442c.06232-.0792.0685-.131.06798-.5705-.000354-.29794-.0194-.57182-.04942-.71394-.13936-.6579-.5889879-1.17438-1.2156759-1.39642-.321982-.114-.832556-.1222-1.132122-.018-.591874.20608-.988662.60746-1.216546 1.23064-.0557.1522-.06928.28842-.08182.81936-.0082.3502-.0064.65902.004.68626.0166.0432.247178.0496 1.787046.0496h1.7680379z"
       stroke-width=".564583"
       id="path2"
       style="fill:#ffff00;fill-opacity:1;stroke:#000000;stroke-opacity:1" />
    <path
       d="m1.7657484 281.9306c2.0213886 1.661 4.094357 3.35747 5.8228883 4.75854-.194802.33922-.1763595.7604.047348 1.0813l-.00394-.006-5.3421652 5.2922.9135094.83122 4.766539-5.81598-.00758-.006c.3371307.19282.7549323.17541 1.0748476-.0448l5.2922075 5.34216.831199-.9135-5.8159673-4.76654c.1880002-.33627.1684742-.75018-.050348-1.06726l5.3421643-5.29222-.913491-.8308-4.7665393 5.81598c-.3377801-.18913-.7539179-.16871-1.0715504.0526l.00428-.002-5.292208-5.34216z"       
       stroke-width=".529167"
       id="path4"
       style="fill:#ffff00;fill-opacity:1;stroke:#000000;stroke-opacity:1" />
  </g>
</svg>
