<?xml version="1.0" encoding="UTF-8" standalone="no"?>
<svg
   xmlns:dc="http://purl.org/dc/elements/1.1/"
   xmlns:cc="http://creativecommons.org/ns#"
   xmlns:rdf="http://www.w3.org/1999/02/22-rdf-syntax-ns#"
   xmlns:svg="http://www.w3.org/2000/svg"
   xmlns="http://www.w3.org/2000/svg"
   xmlns:sodipodi="http://sodipodi.sourceforge.net/DTD/sodipodi-0.dtd"
   xmlns:inkscape="http://www.inkscape.org/namespaces/inkscape"
   height="64"
   viewBox="0 0 16.933332 16.933332"
   width="64"
   version="1.1"
   id="svg48"
   sodipodi:docname="icon_surface.svg"
   inkscape:version="0.92.2 2405546, 2018-03-11">
  <metadata
     id="metadata54">
    <rdf:RDF>
      <cc:Work
         rdf:about="">
        <dc:format>image/svg+xml</dc:format>
        <dc:type
           rdf:resource="http://purl.org/dc/dcmitype/StillImage" />
      </cc:Work>
    </rdf:RDF>
  </metadata>
  <defs
     id="defs52" />
  <sodipodi:namedview
     pagecolor="#ffffff"
     bordercolor="#666666"
     borderopacity="1"
     objecttolerance="10"
     gridtolerance="10"
     guidetolerance="10"
     inkscape:pageopacity="0"
     inkscape:pageshadow="2"
     inkscape:window-width="1920"
     inkscape:window-height="1025"
     id="namedview50"
     showgrid="false"
     inkscape:zoom="3.6875"
     inkscape:cx="-25.491525"
     inkscape:cy="32"
     inkscape:window-x="2560"
     inkscape:window-y="551"
     inkscape:window-maximized="1"
     inkscape:current-layer="svg48" />
  <g
     fill="#fbff9c"
     stroke="#a39309"
     transform="translate(.373386 -279.79139)"
     id="g46"
     style="fill:#ffffff;fill-opacity:1;stroke:#898985;stroke-opacity:1">
    <path
       d="m5.2815795 291.1076c.269285.213.367798.31988.386822.41968.01408.0736.0193.67402.01161 1.33414l-.01389 1.20025-.373005.33974-.373006.33974.000709.3571c.000407.19641.02.38723.04356.42406.03726.0582.442409.0688 3.105538.0804l3.0626895.0132.08009-.10277c.06302-.0808.0803-.18987.0811-.51174l.001-.40897-.472966-.34033c-.392995-.28275-.477546-.36456-.500034-.48377-.01484-.0789-.02076-.58982-.01313-1.1354l.01408-.99198.293866-.29386c.215149-.21514.345339-.30761.486011-.34524l.192145-.0515v-.91918c0-.65541-.0156-.93456-.05425-.97276-.04112-.0406-.78995-.0535-3.0936255-.0535h-3.039359l-.0937.11761c-.08679.10897-.0937.17604-.0937.90826v.79065z"
       stroke-width=".264583"
       id="path26"
       style="fill:#ffffff;fill-opacity:1;stroke:#898985;stroke-opacity:1" />
    <path
       d="m3.9905725 291.07256.1594259-.32725.0008829-4.49356c.0007174-3.65322.01313-4.58382.065974-4.97633.094651-.70218.2269487-.87056.814754-1.03705.2366536-.0671.5769645-.0795 2.6674072-.0971 3.2046085-.0272 3.6600125.0169 4.0148775.38797.297716.31143.278923-.0312.291497 5.31339l.01142 4.84312.182527.38384.182527.38382-.01313 1.47257-.01313 1.47257-.16955.25202-.16953.76746s-.06116.79929-.249412.86995c-.128961.0485-7.1559136.0635-7.3364276.015-.1908105-.0505-.253913-.25402-.2727803-.8799-.016746-.55692-.021446-.57975-.1595591-.78114l-.1422806-.20745-.012559-1.51766-.012559-1.51765zm.5675127-9.82719c.1816899.0744.4829873.0304.8220632-.11986.2460597-.10897.279686-.14129.3789304-.36278.1717187-.38338.1601109-.41057-.1754674-.41057-.3342425 0-.7764865.10277-.9363101.21757-.1496069.10746-.2245701.2597-.2253846.45772-.0005689.13847.019181.17003.1361723.21794zm.3508207 7.14145c.019543 0 .1568759-.0464.3051698-.10334l.2696234-.10314-.00137-1.09082-.00136-1.09081-.1474756-.3571c-.2484649-.60162-.335291-.77569-.3989814-.79981-.05077-.0192-.061159.27975-.061159 1.76091 0 .98125.015984 1.78409.035546 1.78409zm.3709648 2.72722c.2692847.213.3677984.31988.3868218.41968.014082.0736.019296.67402.011608 1.33414l-.013891 1.20025-.3730048.33974-.3730066.33974.0007098.3571c.0004072.19641.019999.38723.043558.42406.037259.0582.4424096.0688 3.105539.0804l3.0626891.0132.08009-.10277c.06302-.0808.0803-.18987.0811-.51174l.001-.40897-.472966-.34033c-.392995-.28275-.477545-.36456-.500034-.48377-.01484-.0789-.02076-.58982-.01313-1.1354l.01408-.99198.293866-.29386c.215149-.21514.345339-.30761.486011-.34524l.192145-.0515v-.91918c0-.65541-.0156-.93456-.05425-.97276-.04112-.0406-.78995-.0535-3.0936252-.0535h-3.0393598l-.093699.11761c-.086792.10897-.093699.17604-.093699.90826v.79065zm.00457-6.66992c.076935.21671.1701392.49447.2071052.61723.036974.12269.094422.28345.1276472.3571.033225.0736.073833.20552.090217.29304.016365.0875.04352.18074.060265.20736.021427.034.2447848.0212.7538115-.0427.9386412-.1178 2.2577237-.12644 3.0367792-.0199.6619262.0906.8471062.0941.9120022.0169.04913-.0584.199793-.40204.4343-.99049.06849-.17191.181461-.44725.251043-.612.131244-.31069.126449-.34167-.06312-.4088-.270379-.0956-2.036547-.2498-2.8756165-.25087-.7302059-.00094-2.185984.0836-2.4187519.14053-.099465.0242-.2876497.0648-.4181951.09-.2868733.0554-.2883899.0646-.097467.60257zm5.2831993-3.61251c.07317.10916.139179.21292.146715.23083.02344.0558.833644.36099.958089.36099.114231 0 .118037-.009.118037-.27004 0-.30177-.07524-.48411-.245159-.59402-.168389-.10896-.595429-.20722-.900248-.20722h-.267415l.02849.14053c.0156.0774.08833.22983.1615.33887zm.239514 7.4418c.08082.0333.223227.0748.316473.0919l.16953.0314v-1.86005c0-1.07844-.01694-1.8497-.04032-1.83544-.02217.0131-.112786.20052-.201343.41553-.08856.21501-.212344.51144-.275076.65874-.111244.26123-.114079.29461-.115126 1.35255l-.0011 1.08474z"
       stroke-width=".264583"
       id="path28"
       style="fill:#ffffff;fill-opacity:1;stroke:#898985;stroke-opacity:1" />
    <g
       fill-rule="evenodd"
       stroke-width=".084276"
       transform="matrix(1.9029108 0 0 1.8646591 -19.521748 -239.08613)"
       id="g44"
       style="fill:#ffffff;fill-opacity:1;stroke:#898985;stroke-opacity:1">
      <path
         d="m14.078001 286.56603v-3.18635"
         id="path30"
         style="fill:#ffffff;fill-opacity:1;stroke:#898985;stroke-opacity:1" />
      <path
         d="m14.459236 286.56639v-3.18635"
         id="path32"
         style="fill:#ffffff;fill-opacity:1;stroke:#898985;stroke-opacity:1" />
      <path
         d="m14.874664 286.56435v-3.18635"
         id="path34"
         style="fill:#ffffff;fill-opacity:1;stroke:#898985;stroke-opacity:1" />
      <path
         d="m15.257287 286.56346v-3.18635"
         id="path36"
         style="fill:#ffffff;fill-opacity:1;stroke:#898985;stroke-opacity:1" />
      <path
         d="m13.683392 286.56503v-3.18635"
         id="path38"
         style="fill:#ffffff;fill-opacity:1;stroke:#898985;stroke-opacity:1" />
      <path
         d="m15.599786 286.56536v-3.18635"
         id="path40"
         style="fill:#ffffff;fill-opacity:1;stroke:#898985;stroke-opacity:1" />
      <path
         d="m13.297421 286.56461v-3.18635"
         id="path42"
         style="fill:#ffffff;fill-opacity:1;stroke:#898985;stroke-opacity:1" />
    </g>
  </g>
</svg>
