<?xml version="1.0" encoding="UTF-8" standalone="no"?>
<svg
   xmlns:dc="http://purl.org/dc/elements/1.1/"
   xmlns:cc="http://creativecommons.org/ns#"
   xmlns:rdf="http://www.w3.org/1999/02/22-rdf-syntax-ns#"
   xmlns:svg="http://www.w3.org/2000/svg"
   xmlns="http://www.w3.org/2000/svg"
   xmlns:sodipodi="http://sodipodi.sourceforge.net/DTD/sodipodi-0.dtd"
   xmlns:inkscape="http://www.inkscape.org/namespaces/inkscape"
   version="1.0"
   width="1000.000000pt"
   height="1080.000000pt"
   viewBox="0 0 1000.000000 1080.000000"
   preserveAspectRatio="xMidYMid meet"
   id="svg32"
   sodipodi:docname="icon_dronGreen.svg"
   inkscape:version="0.92.1 r15371">
  <defs
     id="defs36" />
  <sodipodi:namedview
     pagecolor="#ffffff"
     bordercolor="#666666"
     borderopacity="1"
     objecttolerance="10"
     gridtolerance="10"
     guidetolerance="10"
     inkscape:pageopacity="0"
     inkscape:pageshadow="2"
     inkscape:window-width="1920"
     inkscape:window-height="982"
     id="namedview34"
     showgrid="false"
     inkscape:zoom="0.46354778"
     inkscape:cx="741.01981"
     inkscape:cy="677.61363"
     inkscape:window-x="0"
     inkscape:window-y="0"
     inkscape:window-maximized="1"
     inkscape:current-layer="svg32" />
  <metadata
     id="metadata2">
Created by potrace 1.16, written by Peter Selinger 2001-2019
<rdf:RDF>
  <cc:Work
     rdf:about="">
    <dc:format>image/svg+xml</dc:format>
    <dc:type
       rdf:resource="http://purl.org/dc/dcmitype/StillImage" />
    <dc:title></dc:title>
  </cc:Work>
</rdf:RDF>
</metadata>
  <path
     sodipodi:type="star"
     style="fill:#00efff;fill-opacity:1;stroke:#001fea;stroke-width:81.96201324;stroke-miterlimit:4;stroke-dasharray:none;stroke-opacity:1"
     id="path88"
     sodipodi:sides="3"
     sodipodi:cx="504.80231"
     sodipodi:cy="378.12744"
     sodipodi:r1="384.91379"
     sodipodi:r2="192.45689"
     sodipodi:arg1="0.52383847"
     sodipodi:arg2="1.571036"
     inkscape:flatsided="true"
     inkscape:rounded="0"
     inkscape:randomized="0"
     d="M 838.10129,570.66423 171.41107,570.50443 504.89457,-6.7863354 Z"
     inkscape:transform-center-x="0.021940643"
     inkscape:transform-center-y="-95.436399"
     transform="matrix(0.47661025,0,0,1.0380141,247.46705,-69.852867)" />
  <g
     id="g8568"
     transform="matrix(1.1212285,-0.01939742,0.02190684,1.0295767,-77.88316,57.216878)"
     style="stroke:#000000;stroke-width:45.29422379;stroke-miterlimit:4;stroke-dasharray:none;stroke-opacity:1">
    <path
       transform="matrix(0.90504228,-0.87119887,0.87693071,0.91026371,-460.07007,514.81523)"
       d="M 599.40422,667.2432 C 554.06215,714.79707 582.20794,868.41058 516.5206,869.97457 450.83325,871.53855 471.63636,716.75959 424.08249,671.41752 376.52862,626.07546 222.9151,654.22125 221.35112,588.5339 c -1.56399,-65.68734 153.21498,-44.88424 198.55704,-92.43811 45.34206,-47.55387 17.19628,-201.16738 82.88362,-202.73137 65.68735,-1.56398 44.88424,153.21498 92.43811,198.55705 47.55387,45.34206 201.16739,17.19627 202.73137,82.88362 1.56399,65.68734 -153.21498,44.88423 -198.55704,92.43811 z"
       inkscape:randomized="0"
       inkscape:rounded="0.3"
       inkscape:flatsided="false"
       sodipodi:arg2="1.5469913"
       sodipodi:arg1="0.76159314"
       sodipodi:r2="288.38678"
       sodipodi:r1="124.00632"
       sodipodi:cy="581.66949"
       sodipodi:cx="509.65619"
       sodipodi:sides="4"
       id="path8553"
       style="fill:yellow;fill-opacity:1;stroke:#000000;stroke-width:35.9454422;stroke-miterlimit:4;stroke-dasharray:none;stroke-opacity:1"
       sodipodi:type="star" />
    <path
       d="m 358.51112,205.59672 c -17.85857,5.48911 -47.3976,33.70506 -71.8204,68.46942 l -8.68795,12.23012 2.41332,1.5408 c 4.24744,2.79271 12.64579,11.07452 15.83138,15.79323 l 3.08905,4.52611 10.52207,-8.95592 c 24.80893,-21.37864 44.30856,-44.20177 53.96184,-63.2692 7.14342,-14.25243 9.26715,-25.90475 5.3093,-29.85305 -2.22025,-2.21491 -4.53704,-2.31121 -10.61861,-0.48151 z"
       id="path6"
       inkscape:connector-curvature="0"
       style="fill:#00c700;fill-opacity:1;stroke:#000000;stroke-width:45.29422379;stroke-miterlimit:4;stroke-dasharray:none;stroke-opacity:1" />
    <path
       d="m 236.87979,296.31148 c -9.55674,1.8297 -20.56148,9.34111 -26.06385,17.71922 -15.05912,23.20834 -3.66825,54.5059 22.58867,62.01731 4.15091,1.2519 8.10876,1.5408 14.47992,1.2519 7.52956,-0.2889 9.65328,-0.7704 15.05912,-3.56311 8.49489,-4.2372 14.76952,-10.59301 19.01696,-19.16373 9.46022,-19.06743 2.41332,-42.56467 -16.12098,-53.44659 -7.72262,-4.4298 -19.78922,-6.45211 -28.95984,-4.815 z"
       id="path8"
       inkscape:connector-curvature="0"
       style="fill:#00c700;fill-opacity:1;stroke:#000000;stroke-width:45.29422379;stroke-miterlimit:4;stroke-dasharray:none;stroke-opacity:1" />
    <path
       d="m 184.75208,370.4626 c -30.50436,26.28994 -47.20454,45.45367 -57.82314,66.35081 -7.52956,14.92652 -9.94288,27.06034 -6.08157,30.52715 10.32901,9.34112 50.10052,-22.14904 79.06036,-62.6914 3.66825,-5.10391 7.62609,-10.97822 8.88102,-13.00053 l 2.22025,-3.6594 -6.37116,-6.16321 c -3.47518,-3.46681 -7.72262,-8.66702 -9.46021,-11.55602 -1.7376,-2.88901 -3.37865,-5.29651 -3.66825,-5.29651 -0.2896,0 -3.28212,2.5038 -6.7573,5.48911 z"
       id="path10"
       inkscape:connector-curvature="0"
       style="fill:#00c700;fill-opacity:1;stroke:#000000;stroke-width:45.29422379;stroke-miterlimit:4;stroke-dasharray:none;stroke-opacity:1" />
    <path
       d="m 629.47869,215.51564 c -6.27463,6.93361 4.34398,25.51954 28.28411,49.40198 14.19032,14.15613 35.13794,31.20126 47.01148,38.13487 l 4.24744,2.4075 5.69544,-6.16321 c 3.08904,-3.46681 8.10875,-7.89661 11.00473,-9.91892 2.99252,-2.0223 5.40584,-3.852 5.40584,-4.1409 0,-0.1926 -3.18558,-4.14091 -6.95036,-8.76332 -11.39087,-13.48202 -34.36568,-35.72736 -44.21202,-42.66097 -21.91295,-15.60062 -45.27389,-24.07504 -50.48666,-18.29703 z"
       id="path12"
       inkscape:connector-curvature="0"
       style="fill:#00c700;fill-opacity:1;stroke:#000000;stroke-width:45.29422379;stroke-miterlimit:4;stroke-dasharray:none;stroke-opacity:1" />
    <path
       d="m 748.9863,299.77828 c -18.43777,6.16321 -29.4425,20.99344 -29.4425,39.67567 0,8.37811 2.02718,15.60062 6.17809,22.14903 15.05912,23.30464 48.94213,25.32695 66.5111,3.75571 16.89324,-20.70453 9.65328,-51.90579 -14.57645,-63.2692 -5.3093,-2.50381 -7.62609,-2.98531 -15.54178,-3.27421 -5.98503,-0.1926 -10.61861,0.1926 -13.12846,0.963 z"
       id="path14"
       inkscape:connector-curvature="0"
       style="fill:#00c700;fill-opacity:1;stroke:#000000;stroke-width:45.29422379;stroke-miterlimit:4;stroke-dasharray:none;stroke-opacity:1" />
    <path
       d="m 804.20306,379.90001 c -3.57171,3.94831 -8.39835,8.28182 -10.81167,9.82262 -2.41332,1.4445 -4.34398,2.98531 -4.34398,3.27421 0,1.5408 19.30656,22.72683 30.50437,33.60875 14.09378,13.77092 20.27188,18.68223 32.91768,26.19365 12.54926,7.60771 22.58868,11.55601 30.3113,12.13382 5.69544,0.3852 6.66076,0.1926 8.59142,-1.73341 10.61861,-10.59301 -28.28411,-56.33559 -72.20654,-85.03304 -3.57171,-2.3112 -6.85382,-4.42981 -7.43302,-4.71871 -0.48266,-0.2889 -3.86131,2.60011 -7.52956,6.45211 z"
       id="path16"
       inkscape:connector-curvature="0"
       style="fill:#00c700;fill-opacity:1;stroke:#000000;stroke-width:45.29422379;stroke-miterlimit:4;stroke-dasharray:none;stroke-opacity:1" />
    <path
       d="m 111.38715,727.06209 c -1.83412,1.8297 -2.02718,2.79271 -1.54452,6.16321 2.89598,18.00813 32.14542,49.97978 70.08281,76.46233 l 10.90821,7.60771 6.85383,-7.22251 c 3.76478,-3.94831 8.97755,-8.57072 11.4874,-10.30412 l 4.73011,-3.1779 -10.13595,-11.36342 c -11.87353,-13.48202 -30.60089,-31.87536 -38.80618,-38.03857 -15.73485,-11.94122 -34.55874,-21.08973 -44.98429,-21.86013 -5.69543,-0.3852 -6.66076,-0.1926 -8.59142,1.7334 z"
       id="path18"
       inkscape:connector-curvature="0"
       style="fill:#00c700;fill-opacity:1;stroke:#000000;stroke-width:45.29422379;stroke-miterlimit:4;stroke-dasharray:none;stroke-opacity:1" />
    <path
       d="m 229.73637,811.70993 c -11.777,3.85201 -22.39561,14.15613 -26.35346,25.42324 -2.70292,7.70402 -2.41332,21.66754 0.67573,28.60115 7.52956,17.33403 22.49215,26.77145 41.02644,25.80844 24.03667,-1.2519 41.31604,-22.72683 37.93739,-47.18707 -1.73759,-12.61532 -10.42554,-24.26764 -22.87827,-30.43085 -6.37117,-3.08161 -8.01222,-3.46681 -15.92791,-3.75571 -6.66077,-0.1926 -10.13595,0.1926 -14.47992,1.5408 z"
       id="path20"
       inkscape:connector-curvature="0"
       style="fill:#00c700;fill-opacity:1;stroke:#000000;stroke-width:45.29422379;stroke-miterlimit:4;stroke-dasharray:none;stroke-opacity:1" />
    <path
       d="m 288.23524,889.23156 c -2.22025,2.88901 -7.14342,7.51141 -10.81167,10.30412 l -6.75729,5.00761 2.50985,2.9853 c 17.9551,21.47494 39.38538,42.17947 53.5757,51.71319 20.94762,14.05982 41.60564,20.89713 46.52881,15.50432 10.03941,-11.07452 -26.16039,-54.40959 -70.56548,-84.35894 -5.21277,-3.4668 -9.65328,-6.35581 -9.94287,-6.35581 -0.19307,0 -2.22026,2.31121 -4.53705,5.20021 z"
       id="path22"
       inkscape:connector-curvature="0"
       style="fill:#00c700;fill-opacity:1;stroke:#000000;stroke-width:45.29422379;stroke-miterlimit:4;stroke-dasharray:none;stroke-opacity:1" />
    <path
       d="m 866.75632,724.07679 c -9.94288,4.7187 -19.78923,12.42272 -34.26915,26.96404 -14.67298,14.63763 -21.43028,22.72684 -34.07608,40.83127 l -7.52956,10.78562 3.66825,2.7927 c 5.3093,4.14091 13.22499,12.61532 15.34872,16.46733 l 1.73759,3.2742 6.27463,-5.4891 c 31.18009,-26.86775 47.3976,-45.45368 57.91968,-66.35082 7.52956,-15.02282 9.94288,-26.96404 6.08156,-30.43085 -2.60638,-2.4075 -8.59141,-1.926 -15.15564,1.15561 z"
       id="path24"
       inkscape:connector-curvature="0"
       style="fill:#00c700;fill-opacity:1;stroke:#000000;stroke-width:45.29422379;stroke-miterlimit:4;stroke-dasharray:none;stroke-opacity:1" />
    <path
       d="m 744.54579,814.50264 c -11.1978,4.1409 -19.30656,11.55602 -24.32627,22.14903 -7.81915,16.75623 -2.22025,38.71267 12.6458,49.59459 8.10876,5.97061 13.80419,7.80031 24.80893,7.80031 11.10127,0 16.89324,-1.8297 25.19506,-8.08921 5.50237,-4.14091 12.25967,-13.48203 14.09379,-19.54894 0.67573,-2.2149 1.25493,-8.37811 1.25493,-13.67462 0,-8.85961 -0.2896,-10.20782 -3.08905,-16.08213 -5.21277,-11.07452 -14.47992,-19.16373 -25.2916,-22.34163 -6.85382,-2.02231 -19.49962,-1.92601 -25.29159,0.1926 z"
       id="path26"
       inkscape:connector-curvature="0"
       style="fill:#00c700;fill-opacity:1;stroke:#000000;stroke-width:45.29422379;stroke-miterlimit:4;stroke-dasharray:none;stroke-opacity:1" />
    <path
       d="m 693.86607,890.19456 c -12.45273,10.68932 -33.88301,32.35686 -40.06111,40.54237 -12.0666,15.79323 -21.14068,34.47546 -21.91295,44.87587 -0.38613,5.68171 -0.19306,6.64472 1.73759,8.57072 1.83413,1.8297 2.79945,2.0223 6.1781,1.5408 17.9551,-2.7927 50.77626,-32.74205 76.45398,-69.91392 l 7.72262,-11.07451 -6.37116,-5.87431 c -3.47518,-3.27421 -7.81916,-8.57072 -9.74981,-11.84492 l -3.47518,-5.87431 z"
       id="path28"
       inkscape:connector-curvature="0"
       style="fill:#00c700;fill-opacity:1;stroke:#000000;stroke-width:45.29422379;stroke-miterlimit:4;stroke-dasharray:none;stroke-opacity:1" />
  </g>
</svg>
